<svg id="Capa_3" data-name="Capa 3" xmlns="http://www.w3.org/2000/svg" viewBox="0 0 329.97 61.9"><defs><style>.cls-1{fill:#fff;}</style></defs><title>i+d-logo</title><path class="cls-1" d="M51.6,47.18A23.4,23.4,0,0,0,52,42.8H42.83a15,15,0,1,1-15-15.17h0V18.44h0a24.37,24.37,0,0,0-4.78.47L21.39,23.5a19.86,19.86,0,0,0-2.89,1.22l-4.35-2.07a24.48,24.48,0,0,0-6.52,6.59L9.7,33.58a20.1,20.1,0,0,0-1.18,2.83L4,38a24.3,24.3,0,0,0,0,9.31l4.42,1.57a19,19,0,0,0,1.2,3l-2,4.24a24.48,24.48,0,0,0,6.52,6.59l4.15-2a19.74,19.74,0,0,0,3.17,1.35L23,66.41a23.88,23.88,0,0,0,9.17.07l1.53-4.3a20,20,0,0,0,3.41-1.39l4.18,2a24.5,24.5,0,0,0,6.45-6.39l-2-4.18a20.78,20.78,0,0,0,1.44-3.47Z" transform="translate(-3.58 -4.99)"/><circle class="cls-1" cx="24.25" cy="37.81" r="4.84"/><circle class="cls-1" cx="38.16" cy="10.78" r="4.84"/><rect class="cls-1" x="43.23" y="5.96" width="3.04" height="39.33" transform="translate(27.65 -29.12) rotate(45)"/><polygon class="cls-1" points="58.99 10.65 51.26 2.92 61.76 0 58.99 10.65"/><rect class="cls-1" x="54.42" y="20.68" width="8.12" height="8.12" transform="translate(31.04 -39.1) rotate(45)"/><path class="cls-1" d="M40.13,19.69l-2.32-1.75S32,22.93,33,27a32.24,32.24,0,0,0,2.2,6l-5.41,5.41,2.15,2.15,6.92-6.93a28.44,28.44,0,0,1-2.91-6.58C35,23.78,40.13,19.69,40.13,19.69Z" transform="translate(-3.58 -4.99)"/><path class="cls-1" d="M55.08,26.05s3.4.9,1.79,2.42S52,33.24,47.79,33c-3.43-.16-5.2-1.63-7-1.3-.85.75-4.53,4.57-4.53,4.57l-2-2.05,6.93-6.92a11.36,11.36,0,0,0,6.62,2.84C51.5,30.25,55.08,26.05,55.08,26.05Z" transform="translate(-3.58 -4.99)"/><path class="cls-1" d="M82.15,18.31h5.17v32.9H82.15Z" transform="translate(-3.58 -4.99)"/><path class="cls-1" d="M91.17,18.31h6.49l5,19.7h.09V18.31h4.6v32.9h-5.31l-6.2-24h-.09v24H91.17Z" transform="translate(-3.58 -4.99)"/><path class="cls-1" d="M111.24,18.31h7.89q3.86,0,5.78,2.07t1.93,6.06V43.08q0,4-1.93,6.07t-5.78,2.06h-7.89Zm7.8,28.2a2.49,2.49,0,0,0,1.95-.75,3.59,3.59,0,0,0,.68-2.44V26.21a3.64,3.64,0,0,0-.68-2.45A2.49,2.49,0,0,0,119,23h-2.63v23.5Z" transform="translate(-3.58 -4.99)"/><path class="cls-1" d="M132.11,49.54a8.68,8.68,0,0,1-2-6.13V18.31h5.17V43.79a3.59,3.59,0,0,0,.68,2.44,2.52,2.52,0,0,0,2,.75,2.49,2.49,0,0,0,1.95-.75,3.54,3.54,0,0,0,.69-2.44V18.31h5v25.1a8.68,8.68,0,0,1-2,6.13,8.74,8.74,0,0,1-11.46,0Z" transform="translate(-3.58 -4.99)"/><path class="cls-1" d="M150.25,49.54a8.8,8.8,0,0,1-1.93-6.13V41.53h4.89v2.26c0,2.13.89,3.19,2.68,3.19a2.56,2.56,0,0,0,2-.77,3.82,3.82,0,0,0,.68-2.52,7,7,0,0,0-.94-3.64,17.46,17.46,0,0,0-3.48-3.78,21,21,0,0,1-4.47-5.1A10.48,10.48,0,0,1,148.41,26a8.57,8.57,0,0,1,2-6,7.43,7.43,0,0,1,5.73-2.14A7.15,7.15,0,0,1,161.74,20a8.93,8.93,0,0,1,1.9,6.13v1.37h-4.89V25.79a3.84,3.84,0,0,0-.65-2.47,2.38,2.38,0,0,0-1.93-.78c-1.72,0-2.59,1.05-2.59,3.15a6.24,6.24,0,0,0,1,3.34,18.43,18.43,0,0,0,3.5,3.76,19.34,19.34,0,0,1,4.46,5.12,11.34,11.34,0,0,1,1.23,5.41,8.82,8.82,0,0,1-2,6.2,7.52,7.52,0,0,1-5.8,2.16A7.25,7.25,0,0,1,150.25,49.54Z" transform="translate(-3.58 -4.99)"/><path class="cls-1" d="M170.74,23h-5.41v-4.7h16V23h-5.4v28.2h-5.17Z" transform="translate(-3.58 -4.99)"/><path class="cls-1" d="M183.81,18.31h7.66q4,0,5.83,1.86t1.83,5.71v2q0,5.13-3.39,6.49v.09a4.06,4.06,0,0,1,2.66,2.3,11.6,11.6,0,0,1,.77,4.66v5.78a22.63,22.63,0,0,0,.1,2.28,5.6,5.6,0,0,0,.47,1.71h-5.27a7.8,7.8,0,0,1-.37-1.5,23.69,23.69,0,0,1-.09-2.54v-6a5.12,5.12,0,0,0-.73-3.15,3.09,3.09,0,0,0-2.52-.9H189v14.1h-5.17Zm7.05,14.1a3.05,3.05,0,0,0,2.32-.8,3.74,3.74,0,0,0,.78-2.67V26.4a4.16,4.16,0,0,0-.64-2.59,2.4,2.4,0,0,0-2-.8H189v9.4Z" transform="translate(-3.58 -4.99)"/><path class="cls-1" d="M202.75,18.31h5.17v32.9h-5.17Z" transform="translate(-3.58 -4.99)"/><path class="cls-1" d="M215.77,18.31h7l5.36,32.9H223L222,44.68v.09h-5.88l-.94,6.44h-4.79Zm5.64,22L219.1,24.05H219l-2.26,16.26Z" transform="translate(-3.58 -4.99)"/><path class="cls-1" d="M230.62,18.31h5.17v28.2h8.5v4.7H230.62Z" transform="translate(-3.58 -4.99)"/><path class="cls-1" d="M258.3,18.31h7l5.36,32.9h-5.17l-.94-6.53v.09h-5.87l-.94,6.44h-4.8Zm5.64,22-2.3-16.26h-.1l-2.25,16.26Z" transform="translate(-3.58 -4.99)"/><path class="cls-1" d="M273.15,18.31h7.66q4,0,5.83,1.86t1.83,5.71v2c0,3.42-1.12,5.58-3.38,6.49v.09a4.09,4.09,0,0,1,2.66,2.3,11.78,11.78,0,0,1,.77,4.66v5.78q0,1.41.09,2.28a5.62,5.62,0,0,0,.48,1.71h-5.27a7.86,7.86,0,0,1-.38-1.5,23.69,23.69,0,0,1-.09-2.54v-6a5.06,5.06,0,0,0-.73-3.15,3.05,3.05,0,0,0-2.51-.9h-1.79v14.1h-5.17Zm7.05,14.1a3.08,3.08,0,0,0,2.33-.8,3.74,3.74,0,0,0,.77-2.67V26.4a4.23,4.23,0,0,0-.63-2.59,2.4,2.4,0,0,0-2-.8h-2.35v9.4Z" transform="translate(-3.58 -4.99)"/><path class="cls-1" d="M292.09,18.31h7.38l3.29,23.55h.1l3.29-23.55h7.38v32.9h-4.89V26.3h-.1l-3.76,24.91h-4.32L296.7,26.3h-.09V51.21h-4.52Z" transform="translate(-3.58 -4.99)"/><path class="cls-1" d="M322.13,37.21l-6.25-18.9h5.49l3.53,12.08H325l3.53-12.08h5l-6.25,18.9v14h-5.17Z" transform="translate(-3.58 -4.99)"/></svg>