<svg id="Capa_3" data-name="Capa 3" xmlns="http://www.w3.org/2000/svg" viewBox="0 0 61.76 61.9"><defs><style>.cls-1{fill:#fff;}</style></defs><title>LogoBlanco</title><path class="cls-1" d="M51.6,47.18A23.4,23.4,0,0,0,52,42.8H42.83a15,15,0,1,1-15-15.17h0V18.44h0a24.37,24.37,0,0,0-4.78.47L21.39,23.5a19.86,19.86,0,0,0-2.89,1.22l-4.35-2.07a24.48,24.48,0,0,0-6.52,6.59L9.7,33.58a20.1,20.1,0,0,0-1.18,2.83L4,38a24.3,24.3,0,0,0,0,9.31l4.42,1.57a19,19,0,0,0,1.2,3l-2,4.24a24.48,24.48,0,0,0,6.52,6.59l4.15-2a19.74,19.74,0,0,0,3.17,1.35L23,66.41a23.88,23.88,0,0,0,9.17.07l1.53-4.3a20,20,0,0,0,3.41-1.39l4.18,2a24.5,24.5,0,0,0,6.45-6.39l-2-4.18a20.78,20.78,0,0,0,1.44-3.47Z" transform="translate(-3.58 -4.99)"/><circle class="cls-1" cx="24.25" cy="37.81" r="4.84"/><circle class="cls-1" cx="38.16" cy="10.78" r="4.84"/><rect class="cls-1" x="43.23" y="5.96" width="3.04" height="39.33" transform="translate(27.65 -29.12) rotate(45)"/><polygon class="cls-1" points="58.99 10.65 51.26 2.92 61.76 0 58.99 10.65"/><rect class="cls-1" x="54.42" y="20.68" width="8.12" height="8.12" transform="translate(31.04 -39.1) rotate(45)"/><path class="cls-1" d="M40.13,19.69l-2.32-1.75S32,22.93,33,27a32.24,32.24,0,0,0,2.2,6l-5.41,5.41,2.15,2.15,6.92-6.93a28.44,28.44,0,0,1-2.91-6.58C35,23.78,40.13,19.69,40.13,19.69Z" transform="translate(-3.58 -4.99)"/><path class="cls-1" d="M55.08,26.05s3.4.9,1.79,2.42S52,33.24,47.79,33c-3.43-.16-5.2-1.63-7-1.3-.85.75-4.53,4.57-4.53,4.57l-2-2.05,6.93-6.92a11.36,11.36,0,0,0,6.62,2.84C51.5,30.25,55.08,26.05,55.08,26.05Z" transform="translate(-3.58 -4.99)"/></svg>